Title: L'Apollonide (Souvenirs de la maison close) aka House of Tolerance
Year: 2011 
Country: France
Language: French
Genre: Drama
Runtime: 122 min
Source: DVDRIP
Size: 1,66 GB
Directed by: Bertrand Bonello
Starring:
Hafsia Herzi  ...  Samira
Céline Sallette  ...  Clotilde
Jasmine Trinca  ...  Julie
Adele Haenel  ...  Léa
Alice Barnole  ...  Madeleine
Iliana Zabeth  ...  Pauline
Noémie Lvovsky  ...  Marie-France

IMDB Rating: 7.3/10

IMDB Link:                       
http://www.imdb.com/title/tt1660379/


Storyline: The dawn of the XXth century: L'Apollonide, a house of tolerance, is living its last days. In this closed world, where some men fall in love and others become viciously harmful, the girls share their secrets, their fears, their joys and their pains. [Cannes Film Festival]



General
Complete name                    : G:\Filmes\L.Apollonide.Souvenirs.De.La.Maison.Close.DVDRip.HORiZON-ArtSubs\L.Apollonide.Souvenirs.De.La.Maison.Close.DVDRip.HORiZON-ArtSubs.avi
Format                           : AVI
Format/Info                      : Audio Video Interleave
File size                        : 1.66 GiB
Duration                         : 2h 0mn
Overall bit rate                 : 1 978 Kbps
Writing application              : FairUse Wizard - http://fairusewizard.com
Writing library                  : The best and REALLY easy backup tool

Video
ID                               : 0
Format                           : MPEG-4 Visual
Format profile                   : Advanced Simple@L5
Format settings, BVOP            : Yes
Format settings, QPel            : No
Format settings, GMC             : No warppoints
Format settings, Matrix          : Default (H.263)
Muxing mode                      : Packed bitstream
Codec ID                         : XVID
Codec ID/Hint                    : XviD
Duration                         : 2h 0mn
Bit rate                         : 1 521 Kbps
Width                            : 688 pixels
Height                           : 368 pixels
Display aspect ratio             : 1.870
Frame rate                       : 25.000 fps
Color space                      : YUV
Chroma subsampling               : 4:2:0
Bit depth                        : 8 bits
Scan type                        : Progressive
Compression mode                 : Lossy
Bits/(Pixel*Frame)               : 0.240
Stream size                      : 1.28 GiB (77%)
Writing library                  : XviD 1.1.0 (UTC 2005-11-22)

Audio
ID                               : 1
Format                           : AC-3
Format/Info                      : Audio Coding 3
Mode extension                   : CM (complete main)
Codec ID                         : 2000
Duration                         : 2h 0mn
Bit rate mode                    : Constant
Bit rate                         : 448 Kbps
Channel(s)                       : 6 channels
Channel positions                : Front: L C R, Side: L R, LFE
Sampling rate                    : 48.0 KHz
Bit depth                        : 16 bits
Compression mode                 : Lossy
Stream size                      : 385 MiB (23%)
Alignment                        : Split accross interleaves
Interleave, duration             : 40 ms (1.00 video frame)
Interleave, preload duration     : 500 ms



Thanks to those helping me seed. Leechers remember, the community depends on you. If nobody shares, the freebies go away. Remember, the only reason you can download this free movie is because others are generous enough to keep sharing it with you. If nobody shares, everybody loses, so even if its for an extra hour or two after you get it, remember, others want to see it too, and they can't without you.


SEE MY OTHERS UPLOADS:                                               
http://thepiratebay.org/user/noriegaRJ

AND SEE THIS ANOTHERS UPLOADS FROM "HORiZON-ArtSubs":    
http://thepiratebay.org/user/lletaif						
